<svg width="32" height="32" viewBox="0 0 32 32" fill="none" xmlns="http://www.w3.org/2000/svg">
  <!-- Cat head -->
  <circle cx="16" cy="18" r="10" fill="#6366f1"/>
  
  <!-- Cat ears -->
  <path d="M8 12 L12 8 L16 12 Z" fill="#6366f1"/>
  <path d="M16 12 L20 8 L24 12 Z" fill="#6366f1"/>
  
  <!-- Inner ears -->
  <path d="M9 11 L12 9 L15 11 Z" fill="#fbbf24"/>
  <path d="M17 11 L20 9 L23 11 Z" fill="#fbbf24"/>
  
  <!-- Cat eyes -->
  <circle cx="13" cy="16" r="2" fill="#1f2937"/>
  <circle cx="19" cy="16" r="2" fill="#1f2937"/>
  <circle cx="13.5" cy="15.5" r="0.5" fill="#ffffff"/>
  <circle cx="19.5" cy="15.5" r="0.5" fill="#ffffff"/>
  
  <!-- Cat nose -->
  <path d="M16 18 L15 19 L17 19 Z" fill="#f87171"/>
  
  <!-- Cat mouth -->
  <path d="M16 19 Q14 20 12 19" stroke="#1f2937" stroke-width="1" fill="none"/>
  <path d="M16 19 Q18 20 20 19" stroke="#1f2937" stroke-width="1" fill="none"/>
  
  <!-- Cat whiskers -->
  <line x1="6" y1="17" x2="10" y2="17" stroke="#1f2937" stroke-width="0.5"/>
  <line x1="6" y1="19" x2="10" y2="19" stroke="#1f2937" stroke-width="0.5"/>
  <line x1="6" y1="21" x2="10" y2="21" stroke="#1f2937" stroke-width="0.5"/>
  
  <line x1="26" y1="17" x2="22" y2="17" stroke="#1f2937" stroke-width="0.5"/>
  <line x1="26" y1="19" x2="22" y2="19" stroke="#1f2937" stroke-width="0.5"/>
  <line x1="26" y1="21" x2="22" y2="21" stroke="#1f2937" stroke-width="0.5"/>
</svg>